<svg xmlns="http://www.w3.org/2000/svg" width="1920" height="864" viewBox="0 0 1920 864"><defs><style>.a{fill:#003249;}.b,.c{fill:#fff;}.c,.d,.e{stroke:#fff;stroke-miterlimit:10;}.c{stroke-width:3px;}.d,.e{fill:none;}.d{stroke-width:7px;}.e{stroke-width:9px;}</style></defs><rect class="a" width="1920" height="864"/><path class="b" d="M312.51563,235.82031V221.66406H298.125v14.15625h-6.91406V202.79688H298.125v13.14843h14.39063V202.79688h6.91406v33.02343Z"/><path class="b" d="M336.39844,236.28906q-5.71875,0-8.78906-3.38672t-3.07032-9.8789q0-6.28125,3.11719-9.65625t8.83594-3.375q5.46093,0,8.34375,3.62109t2.88281,10.60547v.1875H331.45313a9.46875,9.46875,0,0,0,1.37109,5.58984,4.536,4.536,0,0,0,3.90234,1.88672q3.49219,0,4.40625-3.02343l6.21094.53906Q344.64845,236.28907,336.39844,236.28906Zm0-22.14843a4.25632,4.25632,0,0,0-3.57422,1.61718A7.53688,7.53688,0,0,0,331.5,220.28125h9.84375a7.79665,7.79665,0,0,0-1.47656-4.60547A4.29606,4.29606,0,0,0,336.39844,214.14063Z"/><path class="b" d="M355.99219,245.78125a24.8759,24.8759,0,0,1-4.14844-.30469v-4.6875a15.33142,15.33142,0,0,0,2.27344.1875,5.37353,5.37353,0,0,0,2.332-.44531,4.45467,4.45467,0,0,0,1.66406-1.47656,16.03326,16.03326,0,0,0,1.65235-3.49219l-10.03125-25.10156h6.96093l3.98438,11.88281q.9375,2.55469,2.36719,7.82813l.58593-2.22657,1.52344-5.50781,3.75-11.97656h6.89063l-10.03125,26.69531q-2.01562,4.875-4.1836,6.75A8.23924,8.23924,0,0,1,355.99219,245.78125Z"/><path class="b" d="M382.61719,234.27344a18.66389,18.66389,0,0,1-.59766,4.96875,12.51663,12.51663,0,0,1-1.93359,4.00781H375.75a15.15563,15.15563,0,0,0,2.25-3.65625,9.46894,9.46894,0,0,0,.86719-3.77344h-3.02344v-7.14843h6.77344Z"/><path class="b" d="M324.72656,387.82031h-8.20312l-4.47656-19.10156q-.82032-3.375-1.38282-7.05469-.5625,3.07032-.91406,4.67578t-4.99219,21.48047h-8.20312l-8.50781-33.02343h7.00781l4.78125,21.32812,1.07812,5.15625q.65625-3.25781,1.27735-6.22266t4.67578-20.26171h7.73437l4.17188,17.57812q.49218,1.96875,1.66406,8.90625l.58594-2.71875,1.24219-5.39062,3.98437-18.375h7.00781Z"/><path class="b" d="M346.17188,388.28906q-5.71875,0-8.78907-3.38672t-3.07031-9.8789q0-6.28125,3.11719-9.65625t8.83594-3.375q5.46093,0,8.34375,3.62109t2.88281,10.60547v.1875H341.22656a9.46867,9.46867,0,0,0,1.3711,5.58984A4.536,4.536,0,0,0,346.5,383.88281q3.49219,0,4.40625-3.02343l6.21094.53906Q354.42187,388.28907,346.17188,388.28906Zm0-22.14843a4.25631,4.25631,0,0,0-3.57422,1.61718,7.53681,7.53681,0,0,0-1.32422,4.52344h9.84375a7.79665,7.79665,0,0,0-1.47656-4.60547A4.29606,4.29606,0,0,0,346.17188,366.14063Z"/><path class="b" d="M362.48438,387.82031V353.03906h6.58593v34.78125Z"/><path class="b" d="M386.39063,388.28906q-5.76562,0-8.90625-3.43359t-3.14063-9.57422q0-6.28125,3.16406-9.78516t8.97657-3.5039a11.80546,11.80546,0,0,1,7.40625,2.25,9.82259,9.82259,0,0,1,3.67968,6.21094l-6.63281.32812a5.44069,5.44069,0,0,0-1.40625-3.10547,4.23507,4.23507,0,0,0-3.1875-1.16015q-5.08593,0-5.08594,8.50781,0,8.76563,5.17969,8.76562a4.4222,4.4222,0,0,0,3.14063-1.18359,5.65241,5.65241,0,0,0,1.57031-3.52734l6.60937.30468a9.82775,9.82775,0,0,1-5.83593,7.793A13.27393,13.27393,0,0,1,386.39063,388.28906Z"/><path class="b" d="M426.60938,375.11719q0,6.16406-3.42188,9.668t-9.46875,3.5039q-5.92968,0-9.30469-3.51562t-3.375-9.65625q0-6.11719,3.375-9.6211t9.44532-3.5039q6.21093,0,9.48046,3.38672T426.60938,375.11719Zm-6.89063,0q0-4.52344-1.47656-6.5625a4.96615,4.96615,0,0,0-4.28906-2.03906q-6,0-6,8.60156a11.73748,11.73748,0,0,0,1.46484,6.457,4.764,4.764,0,0,0,4.23047,2.21484Q419.71875,383.78906,419.71875,375.11719Z"/><path class="b" d="M446.76563,387.82031V373.59375q0-6.67968-3.84375-6.67969a3.72105,3.72105,0,0,0-3.2461,2.03907,9.94308,9.94308,0,0,0-1.2539,5.27343v13.59375h-6.58594v-19.6875q0-2.03906-.0586-3.33984t-.1289-2.332h6.28125q.07031.44531.1875,2.3789t.11719,2.66016h.09375a9.63912,9.63912,0,0,1,3.03515-4.21875,7.22374,7.22374,0,0,1,4.34766-1.3125q5.8125,0,7.05469,5.53125h.14062A9.947,9.947,0,0,1,456,363.25781a7.71252,7.71252,0,0,1,4.59375-1.28906,6.70421,6.70421,0,0,1,5.64844,2.51953q1.94531,2.51954,1.94531,7.23047v16.10156h-6.53906V373.59375q0-6.67968-3.84375-6.67969a3.66557,3.66557,0,0,0-3.15235,1.86328,9.92576,9.92576,0,0,0-1.34765,5.14454v13.89843Z"/><path class="b" d="M484.89844,388.28906q-5.71875,0-8.78906-3.38672t-3.07032-9.8789q0-6.28125,3.11719-9.65625t8.83594-3.375q5.46093,0,8.34375,3.62109t2.88281,10.60547v.1875H479.95313a9.46875,9.46875,0,0,0,1.37109,5.58984,4.536,4.536,0,0,0,3.90234,1.88672q3.49219,0,4.40625-3.02343l6.21094.53906Q493.14845,388.28907,484.89844,388.28906Zm0-22.14843a4.25632,4.25632,0,0,0-3.57422,1.61718A7.53688,7.53688,0,0,0,480,372.28125h9.84375a7.79665,7.79665,0,0,0-1.47656-4.60547A4.29606,4.29606,0,0,0,484.89844,366.14063Z"/><path class="b" d="M521.03906,388.24219a6.02988,6.02988,0,0,1-4.47656-1.582,6.54667,6.54667,0,0,1-1.57031-4.793V366.91406h-3.21094v-4.45312h3.53906l2.0625-5.95313h4.125v5.95313h4.80469v4.45312h-4.80469v13.17188a4.34448,4.34448,0,0,0,.70313,2.73047,2.62351,2.62351,0,0,0,2.17969.8789,10.6494,10.6494,0,0,0,2.20312-.32812v4.07812A17.85128,17.85128,0,0,1,521.03906,388.24219Z"/><path class="b" d="M554.625,375.11719q0,6.16406-3.42187,9.668t-9.46875,3.5039q-5.92969,0-9.30469-3.51562t-3.375-9.65625q0-6.11719,3.375-9.6211t9.44531-3.5039q6.21095,0,9.48047,3.38672T554.625,375.11719Zm-6.89062,0q0-4.52344-1.47657-6.5625a4.96614,4.96614,0,0,0-4.28906-2.03906q-6,0-6,8.60156a11.73748,11.73748,0,0,0,1.46484,6.457,4.764,4.764,0,0,0,4.23047,2.21484Q547.73438,383.78906,547.73438,375.11719Z"/><path class="b" d="M588.11719,387.82031V373.59375q0-6.67968-3.84375-6.67969a3.72105,3.72105,0,0,0-3.2461,2.03907,9.94318,9.94318,0,0,0-1.2539,5.27343v13.59375H573.1875v-19.6875q0-2.03906-.05859-3.33984T573,362.46094h6.28125q.07032.44531.1875,2.3789t.11719,2.66016h.09375a9.6392,9.6392,0,0,1,3.03515-4.21875,7.22374,7.22374,0,0,1,4.34766-1.3125q5.8125,0,7.05469,5.53125h.14062a9.947,9.947,0,0,1,3.09375-4.24219,7.71252,7.71252,0,0,1,4.59375-1.28906,6.7042,6.7042,0,0,1,5.64844,2.51953q1.94532,2.51954,1.94531,7.23047v16.10156H603V373.59375q0-6.67968-3.84375-6.67969a3.66555,3.66555,0,0,0-3.15234,1.86328,9.92575,9.92575,0,0,0-1.34766,5.14454v13.89843Z"/><path class="b" d="M619.14844,397.78125A24.8759,24.8759,0,0,1,615,397.47656v-4.6875a15.33142,15.33142,0,0,0,2.27344.1875,5.37353,5.37353,0,0,0,2.332-.44531,4.45467,4.45467,0,0,0,1.66406-1.47656,16.03326,16.03326,0,0,0,1.65235-3.49219l-10.03125-25.10156h6.96093l3.98438,11.88281q.9375,2.55469,2.36719,7.82813l.58593-2.22657,1.52344-5.50781,3.75-11.97656h6.89063l-10.03125,26.69531q-2.01562,4.875-4.1836,6.75A8.23924,8.23924,0,0,1,619.14844,397.78125Z"/><path class="b" d="M683.32031,387.82031h-6.96093l-4.03125-15.46875q-.28125-1.05468-1.10157-5.20312l-1.21875,5.25-4.07812,15.42187h-6.96094l-6.5625-25.35937h6.1875l4.17188,19.38281.32812-1.73437.58594-2.74219,3.98437-14.90625h7.05469l3.89063,14.90625q.32813,1.21875.96093,4.47656l.65625-3.09375,3.65625-16.28906h6.09375Z"/><path class="b" d="M703.61719,388.28906q-5.71875,0-8.78906-3.38672t-3.07032-9.8789q0-6.28125,3.11719-9.65625t8.83594-3.375q5.46093,0,8.34375,3.62109t2.88281,10.60547v.1875H698.67188a9.46875,9.46875,0,0,0,1.37109,5.58984,4.536,4.536,0,0,0,3.90234,1.88672q3.4922,0,4.40625-3.02343l6.21094.53906Q711.8672,388.28907,703.61719,388.28906Zm0-22.14843a4.25632,4.25632,0,0,0-3.57422,1.61718,7.53688,7.53688,0,0,0-1.32422,4.52344h9.84375a7.79665,7.79665,0,0,0-1.47656-4.60547A4.29606,4.29606,0,0,0,703.61719,366.14063Z"/><path class="b" d="M743.92969,375.04688q0,6.28125-2.51953,9.76171a8.36021,8.36021,0,0,1-7.207,3.48047,8.95094,8.95094,0,0,1-4.66407-1.17187,7.66812,7.66812,0,0,1-3.02343-3.375h-.04688q0,.82031-.10547,2.25a11.50267,11.50267,0,0,1-.22265,1.82812h-6.39844q.1875-2.17968.1875-5.78906V353.03906h6.58594v9.70313l-.09375,4.125h.09375q2.22656-4.875,8.10937-4.875a7.92856,7.92856,0,0,1,6.90234,3.41015Q743.9297,368.8125,743.92969,375.04688Zm-6.86719,0q0-4.3125-1.26562-6.39844a4.25706,4.25706,0,0,0-3.91407-2.08594,4.50268,4.50268,0,0,0-4.0664,2.23828,12.29008,12.29008,0,0,0-1.39453,6.457,12.08769,12.08769,0,0,0,1.37109,6.28125,4.44391,4.44391,0,0,0,4.043,2.25Q737.06249,383.78906,737.0625,375.04688Z"/><path class="b" d="M770.625,380.41406a6.66408,6.66408,0,0,1-3.01172,5.77735q-3.01172,2.09764-8.332,2.09765-5.22655,0-8.00391-1.65234a8.06629,8.06629,0,0,1-3.6914-5.14453l5.78906-.86719a4.11575,4.11575,0,0,0,1.69922,2.55469,8.49565,8.49565,0,0,0,4.207.75,8.69286,8.69286,0,0,0,4.03125-.70313,2.34649,2.34649,0,0,0,1.26563-2.20312,2.24353,2.24353,0,0,0-1.01954-1.9336,9.688,9.688,0,0,0-3.457-1.207,35.77789,35.77789,0,0,1-7.52343-2.05078,7.36175,7.36175,0,0,1-2.96485-2.46094,6.49213,6.49213,0,0,1-1.01953-3.71484,6.58989,6.58989,0,0,1,2.80078-5.66016q2.80078-2.02734,7.9336-2.02734a13.36243,13.36243,0,0,1,7.27734,1.75781,7.57165,7.57165,0,0,1,3.43359,5.08594l-5.83593.60938a3.40217,3.40217,0,0,0-1.38282-2.3086,6.2548,6.2548,0,0,0-3.49218-.76172,8.019,8.019,0,0,0-3.51563.59766,2.07445,2.07445,0,0,0-1.17187,2.00391,2.03609,2.03609,0,0,0,.90234,1.74609,8.21658,8.21658,0,0,0,3.03516,1.06641q2.97656.60938,5.28515,1.2539a13.868,13.868,0,0,1,3.70313,1.53516,6.38852,6.38852,0,0,1,3.05859,5.85937Z"/><path class="b" d="M775.94531,357.89063v-4.85157h6.58594v4.85157Zm0,29.92968V362.46094h6.58594v25.35937Z"/><path class="b" d="M795.77344,388.24219a6.02987,6.02987,0,0,1-4.47656-1.582,6.54663,6.54663,0,0,1-1.57032-4.793V366.91406h-3.21093v-4.45312h3.53906l2.0625-5.95313h4.125v5.95313h4.80469v4.45312h-4.80469v13.17188a4.34448,4.34448,0,0,0,.70312,2.73047,2.62352,2.62352,0,0,0,2.17969.8789,10.64947,10.64947,0,0,0,2.20313-.32812v4.07812A17.85133,17.85133,0,0,1,795.77344,388.24219Z"/><path class="b" d="M815.64844,388.28906q-5.71875,0-8.78906-3.38672t-3.07032-9.8789q0-6.28125,3.11719-9.65625t8.83594-3.375q5.46093,0,8.34375,3.62109t2.88281,10.60547v.1875H810.70313a9.46875,9.46875,0,0,0,1.37109,5.58984,4.536,4.536,0,0,0,3.90234,1.88672q3.4922,0,4.40625-3.02343l6.21094.53906Q823.89845,388.28907,815.64844,388.28906Zm0-22.14843a4.25632,4.25632,0,0,0-3.57422,1.61718,7.53688,7.53688,0,0,0-1.32422,4.52344h9.84375a7.79665,7.79665,0,0,0-1.47656-4.60547A4.29606,4.29606,0,0,0,815.64844,366.14063Z"/><path class="b" d="M839.27344,377.83594h-5.39063l-.75-23.03906h6.89063Zm-6.14063,9.98437v-6.32812h6.75v6.32812Z"/><path class="b" d="M318.375,441.25a11.15047,11.15047,0,0,1-1.45312,5.69531,9.80107,9.80107,0,0,1-4.16016,3.87891,14.08172,14.08172,0,0,1-6.43359,1.37109H298.125v11.625h-6.91406V430.79688h14.83594q5.92968,0,9.1289,2.73046A9.59851,9.59851,0,0,1,318.375,441.25Zm-6.96094.11719q0-5.20312-6.14062-5.20313H298.125V446.875h7.33594a6.29,6.29,0,0,0,4.40625-1.418A5.26968,5.26968,0,0,0,311.41406,441.36719Z"/><path class="b" d="M323.36719,433.89063v-4.85157h6.58594v4.85157Zm0,29.92968V438.46094h6.58594v25.35937Z"/><path class="b" d="M347.27344,464.28906q-5.76562,0-8.90625-3.43359t-3.14063-9.57422q0-6.28125,3.16407-9.78516t8.97656-3.5039a11.80546,11.80546,0,0,1,7.40625,2.25,9.82261,9.82261,0,0,1,3.67969,6.21094l-6.63282.32812a5.44069,5.44069,0,0,0-1.40625-3.10547,4.23507,4.23507,0,0,0-3.1875-1.16015q-5.08593,0-5.08593,8.50781,0,8.76563,5.17968,8.76562a4.4222,4.4222,0,0,0,3.14063-1.18359,5.65236,5.65236,0,0,0,1.57031-3.52734l6.60938.30468a9.82778,9.82778,0,0,1-5.83594,7.793A13.27393,13.27393,0,0,1,347.27344,464.28906Z"/><path class="b" d="M379.59375,463.82031l-6.77344-11.48437-2.83593,1.96875v9.51562h-6.58594V429.03906h6.58594v19.92188l9.04687-10.5h7.07813l-8.90625,9.89062,9.58593,15.46875Z"/><path class="b" d="M409.28906,464.28906a7.89431,7.89431,0,0,1-5.74218-2.0039,7.49616,7.49616,0,0,1-2.0625-5.63672,7.24415,7.24415,0,0,1,2.5664-6q2.56641-2.0625,7.44141-2.10938l5.46094-.09375v-1.28906a6.354,6.354,0,0,0-.86719-3.69141,3.25208,3.25208,0,0,0-2.83594-1.207,3.7308,3.7308,0,0,0-2.68359.832A4.43582,4.43582,0,0,0,409.5,445.84375l-6.86719-.32812a8.1708,8.1708,0,0,1,3.38672-5.61329,12.99159,12.99159,0,0,1,7.51172-1.91015q4.80469,0,7.40625,2.36719a8.6319,8.6319,0,0,1,2.60156,6.72656v9.23437a6.2774,6.2774,0,0,0,.48047,2.94141,1.71815,1.71815,0,0,0,1.60547.80859,7.39277,7.39277,0,0,0,1.45313-.14062v3.5625q-.58594.14063-1.05469.25781t-.9375.1875q-.46875.07032-.9961.11719t-1.23046.04687a4.91045,4.91045,0,0,1-3.668-1.21875,5.81343,5.81343,0,0,1-1.418-3.58593h-.14063A8.96808,8.96808,0,0,1,409.28906,464.28906Zm7.66407-12.21093-3.375.04687a10.19038,10.19038,0,0,0-3.25782.50391,3.04435,3.04435,0,0,0-1.46484,1.2539,4.36374,4.36374,0,0,0-.50391,2.25,3.7821,3.7821,0,0,0,.832,2.6836,2.9067,2.9067,0,0,0,2.21485.8789,5.01592,5.01592,0,0,0,2.82422-.84375,5.7444,5.7444,0,0,0,2.0039-2.332,7.09367,7.09367,0,0,0,.72657-3.15234Z"/><path class="b" d="M446.55469,463.82031V449.59375q0-6.67968-4.52344-6.67969a4.5263,4.5263,0,0,0-3.85547,2.05078,8.83927,8.83927,0,0,0-1.46484,5.26172v13.59375H430.125v-19.6875q0-2.03906-.05859-3.33984t-.12891-2.332h6.28125q.07032.44531.1875,2.3789t.11719,2.66016h.09375a9.664,9.664,0,0,1,3.35156-4.21875,8.60913,8.60913,0,0,1,4.80469-1.3125,7.75,7.75,0,0,1,6.1875,2.48438q2.15625,2.48438,2.15625,7.26562v16.10156Z"/><path class="b" d="M462.72656,473.78125a24.87585,24.87585,0,0,1-4.14843-.30469v-4.6875a15.33119,15.33119,0,0,0,2.27343.1875,5.3735,5.3735,0,0,0,2.332-.44531,4.45469,4.45469,0,0,0,1.66407-1.47656A16.03333,16.03333,0,0,0,466.5,463.5625l-10.03125-25.10156h6.96094l3.98437,11.88281q.9375,2.55469,2.36719,7.82813l.58594-2.22657,1.52344-5.50781,3.75-11.97656h6.89062L472.5,465.15625q-2.01562,4.875-4.18359,6.75A8.23929,8.23929,0,0,1,462.72656,473.78125Z"/><path class="b" d="M523.47656,451.02344q0,6.35156-2.543,9.80859a8.3945,8.3945,0,0,1-7.18359,3.457,9.03793,9.03793,0,0,1-4.65234-1.16015,7.59855,7.59855,0,0,1-3.03516-3.33985h-.14062a34.498,34.498,0,0,1,.14062,4.26563v9.72656h-6.58594V444.29688q0-3.58594-.1875-5.83594h6.39844a10.00433,10.00433,0,0,1,.19922,1.66406q.082,1.24219.082,2.46094h.09375q2.22657-4.66407,8.10938-4.66406a7.9502,7.9502,0,0,1,6.86718,3.41015Q523.47656,444.74219,523.47656,451.02344Zm-6.86718,0q0-8.53125-5.22657-8.53125a4.43949,4.43949,0,0,0-4.01953,2.29687,12.39941,12.39941,0,0,0-1.39453,6.42188,12.01815,12.01815,0,0,0,1.39453,6.33984,4.42355,4.42355,0,0,0,3.97266,2.23828Q516.60937,459.78906,516.60938,451.02344Z"/><path class="b" d="M534.65625,464.28906a7.89433,7.89433,0,0,1-5.74219-2.0039,7.49616,7.49616,0,0,1-2.0625-5.63672,7.24416,7.24416,0,0,1,2.56641-6q2.56641-2.0625,7.44141-2.10938l5.46093-.09375v-1.28906a6.35405,6.35405,0,0,0-.86718-3.69141,3.25208,3.25208,0,0,0-2.83594-1.207,3.73084,3.73084,0,0,0-2.6836.832,4.43582,4.43582,0,0,0-1.0664,2.75391L528,445.51563a8.1708,8.1708,0,0,1,3.38672-5.61329,12.99157,12.99157,0,0,1,7.51172-1.91015q4.80468,0,7.40625,2.36719a8.63193,8.63193,0,0,1,2.60156,6.72656v9.23437a6.2774,6.2774,0,0,0,.48047,2.94141,1.71815,1.71815,0,0,0,1.60547.80859,7.39267,7.39267,0,0,0,1.45312-.14062v3.5625q-.58593.14063-1.05468.25781t-.9375.1875q-.46875.07032-.9961.11719t-1.23047.04687a4.91046,4.91046,0,0,1-3.668-1.21875,5.81349,5.81349,0,0,1-1.418-3.58593H543A8.96808,8.96808,0,0,1,534.65625,464.28906Zm7.66406-12.21093-3.375.04687a10.19031,10.19031,0,0,0-3.25781.50391,3.0443,3.0443,0,0,0-1.46484,1.2539,4.36374,4.36374,0,0,0-.50391,2.25,3.78206,3.78206,0,0,0,.832,2.6836,2.9067,2.9067,0,0,0,2.21485.8789,5.01587,5.01587,0,0,0,2.82421-.84375,5.74435,5.74435,0,0,0,2.00391-2.332,7.09366,7.09366,0,0,0,.72656-3.15234Z"/><path class="b" d="M566.10938,473.99219a13.91013,13.91013,0,0,1-7.46485-1.76953,7.44819,7.44819,0,0,1-3.48047-5.05078l6.58594-.77344a3.99564,3.99564,0,0,0,1.51172,2.39062,4.94159,4.94159,0,0,0,3.03516.86719,4.68275,4.68275,0,0,0,4.00781-1.6875,8.29906,8.29906,0,0,0,1.26562-5.01562v-1.33594l.04688-2.50781h-.04688q-2.17968,4.66406-8.15625,4.66406a8.01564,8.01564,0,0,1-6.86718-3.32813q-2.4375-3.32812-2.4375-9.51562,0-6.21094,2.50781-9.58594a8.52009,8.52009,0,0,1,7.28906-3.375q5.53125,0,7.66406,4.57031h.11719q0-.82031.10547-2.22656a12.88,12.88,0,0,1,.22266-1.85156H578.25q-.14062,2.53125-.14062,5.85937v18.72657q0,5.41406-3.07032,8.17968T566.10938,473.99219Zm5.50781-23.20313a11.33922,11.33922,0,0,0-1.39453-6.10547,4.44384,4.44384,0,0,0-3.97266-2.1914q-5.27343,0-5.27344,8.4375,0,8.27343,5.22657,8.27344a4.48413,4.48413,0,0,0,4.01953-2.19141A11.60145,11.60145,0,0,0,571.61719,450.78906Z"/><path class="b" d="M595.19531,464.28906q-5.71875,0-8.78906-3.38672t-3.07031-9.8789q0-6.28125,3.11719-9.65625t8.83593-3.375q5.46095,0,8.34375,3.62109t2.88282,10.60547v.1875H590.25a9.46875,9.46875,0,0,0,1.37109,5.58984,4.536,4.536,0,0,0,3.90235,1.88672q3.49218,0,4.40625-3.02343l6.21094.53906Q603.44531,464.28907,595.19531,464.28906Zm0-22.14843a4.25634,4.25634,0,0,0-3.57422,1.61718,7.53688,7.53688,0,0,0-1.32421,4.52344h9.84375a7.79658,7.79658,0,0,0-1.47657-4.60547A4.296,4.296,0,0,0,595.19531,442.14063Z"/><path class="b" d="M631.05469,438.46094V452.6875q0,6.67969,4.5,6.67969a4.52631,4.52631,0,0,0,3.85547-2.05078,8.83927,8.83927,0,0,0,1.46484-5.26172V438.46094h6.58594v19.6875q0,3.23438.1875,5.67187h-6.28125q-.28125-3.375-.28125-5.03906h-.11719a9.49677,9.49677,0,0,1-3.33984,4.19531,8.667,8.667,0,0,1-4.81641,1.3125,7.76832,7.76832,0,0,1-6.1875-2.47265q-2.15625-2.47266-2.15625-7.25391V438.46094Z"/><path class="b" d="M675.53906,456.41406a6.66406,6.66406,0,0,1-3.01172,5.77735q-3.01171,2.09764-8.332,2.09765-5.22655,0-8.0039-1.65234A8.0663,8.0663,0,0,1,652.5,457.49219l5.78906-.86719a4.11575,4.11575,0,0,0,1.69922,2.55469,8.49565,8.49565,0,0,0,4.207.75,8.69286,8.69286,0,0,0,4.03125-.70313,2.34649,2.34649,0,0,0,1.26563-2.20312,2.24354,2.24354,0,0,0-1.01953-1.9336,9.688,9.688,0,0,0-3.457-1.207,35.778,35.778,0,0,1-7.52344-2.05078,7.36175,7.36175,0,0,1-2.96485-2.46094,6.49221,6.49221,0,0,1-1.01953-3.71484,6.58992,6.58992,0,0,1,2.80078-5.66016q2.80079-2.02734,7.9336-2.02734a13.36243,13.36243,0,0,1,7.27734,1.75781,7.57169,7.57169,0,0,1,3.4336,5.08594l-5.83594.60938a3.40219,3.40219,0,0,0-1.38281-2.3086,6.25486,6.25486,0,0,0-3.49219-.76172,8.019,8.019,0,0,0-3.51563.59766,2.07445,2.07445,0,0,0-1.17187,2.00391,2.03609,2.03609,0,0,0,.90234,1.74609,8.21658,8.21658,0,0,0,3.03516,1.06641q2.97655.60938,5.28515,1.2539a13.8679,13.8679,0,0,1,3.70313,1.53516,6.38852,6.38852,0,0,1,3.05859,5.85937Z"/><path class="b" d="M680.85938,433.89063v-4.85157h6.58593v4.85157Zm0,29.92968V438.46094h6.58593v25.35937Z"/><path class="b" d="M710.625,463.82031V449.59375q0-6.67968-4.52344-6.67969a4.52631,4.52631,0,0,0-3.85547,2.05078,8.83927,8.83927,0,0,0-1.46484,5.26172v13.59375h-6.58594v-19.6875q0-2.03906-.05859-3.33984t-.12891-2.332h6.28125q.07032.44531.1875,2.3789t.11719,2.66016h.09375a9.66412,9.66412,0,0,1,3.35156-4.21875,8.60915,8.60915,0,0,1,4.80469-1.3125,7.75,7.75,0,0,1,6.1875,2.48438q2.15625,2.48438,2.15625,7.26562v16.10156Z"/><path class="b" d="M734.13281,473.99219a13.91009,13.91009,0,0,1-7.46484-1.76953,7.44819,7.44819,0,0,1-3.48047-5.05078l6.58594-.77344a3.99559,3.99559,0,0,0,1.51172,2.39062,4.94154,4.94154,0,0,0,3.03515.86719,4.68276,4.68276,0,0,0,4.00782-1.6875,8.29906,8.29906,0,0,0,1.26562-5.01562v-1.33594l.04688-2.50781h-.04688q-2.17968,4.66406-8.15625,4.66406a8.01565,8.01565,0,0,1-6.86719-3.32813q-2.4375-3.32812-2.4375-9.51562,0-6.21094,2.50782-9.58594a8.52009,8.52009,0,0,1,7.28906-3.375q5.53125,0,7.66406,4.57031h.11719q0-.82031.10547-2.22656a12.882,12.882,0,0,1,.22265-1.85156h6.23438q-.14062,2.53125-.14063,5.85937v18.72657q0,5.41406-3.07031,8.17968T734.13281,473.99219Zm5.50782-23.20313a11.33912,11.33912,0,0,0-1.39454-6.10547,4.44381,4.44381,0,0,0-3.97265-2.1914q-5.27345,0-5.27344,8.4375,0,8.27343,5.22656,8.27344a4.48412,4.48412,0,0,0,4.01953-2.19141A11.60135,11.60135,0,0,0,739.64063,450.78906Z"/><path class="b" d="M772.66406,464.24219a6.02988,6.02988,0,0,1-4.47656-1.582,6.54667,6.54667,0,0,1-1.57031-4.793V442.91406h-3.21094v-4.45312h3.53906l2.0625-5.95313h4.125v5.95313h4.80469v4.45312h-4.80469v13.17188a4.34448,4.34448,0,0,0,.70313,2.73047,2.62351,2.62351,0,0,0,2.17969.8789,10.6494,10.6494,0,0,0,2.20312-.32812v4.07812A17.85128,17.85128,0,0,1,772.66406,464.24219Z"/><path class="b" d="M788.64844,443.52344A9.664,9.664,0,0,1,792,439.30469a8.60913,8.60913,0,0,1,4.80469-1.3125,7.75,7.75,0,0,1,6.1875,2.48437q2.15625,2.48438,2.15625,7.26563v16.07812h-6.5625V449.61719q0-6.67969-4.52344-6.67969a4.52628,4.52628,0,0,0-3.85547,2.05078,8.83927,8.83927,0,0,0-1.46484,5.26172v13.57031h-6.58594V429.03906h6.58594v9.49219q0,2.55469-.1875,4.99219Z"/><path class="b" d="M821.85938,464.28906q-5.71875,0-8.78907-3.38672T810,451.02344q0-6.28125,3.11719-9.65625t8.83594-3.375q5.46093,0,8.34375,3.62109t2.88281,10.60547v.1875H816.91406a9.46867,9.46867,0,0,0,1.3711,5.58984,4.536,4.536,0,0,0,3.90234,1.88672q3.4922,0,4.40625-3.02343l6.21094.53906Q830.10937,464.28907,821.85938,464.28906Zm0-22.14843a4.25631,4.25631,0,0,0-3.57422,1.61718,7.53681,7.53681,0,0,0-1.32422,4.52344h9.84375a7.79665,7.79665,0,0,0-1.47656-4.60547A4.29606,4.29606,0,0,0,821.85938,442.14063Z"/><path class="b" d="M875.50781,451.04688q0,6.28125-2.51953,9.76171a8.36021,8.36021,0,0,1-7.207,3.48047,8.95093,8.95093,0,0,1-4.66406-1.17187,7.6682,7.6682,0,0,1-3.02344-3.375h-.04687q0,.82031-.10547,2.25a11.50222,11.50222,0,0,1-.22266,1.82812h-6.39844q.1875-2.17968.1875-5.78906V429.03906h6.58594v9.70313L858,442.86719h.09375q2.22657-4.875,8.10938-4.875a7.92856,7.92856,0,0,1,6.90234,3.41015Q875.50781,444.8125,875.50781,451.04688Zm-6.86718,0q0-4.3125-1.26563-6.39844a4.257,4.257,0,0,0-3.91406-2.08594,4.50271,4.50271,0,0,0-4.06641,2.23828A12.29008,12.29008,0,0,0,858,451.25781a12.08769,12.08769,0,0,0,1.37109,6.28125,4.44392,4.44392,0,0,0,4.043,2.25Q868.64063,459.78906,868.64063,451.04688Z"/><path class="b" d="M887.03906,438.46094V452.6875q0,6.67969,4.5,6.67969a4.5263,4.5263,0,0,0,3.85547-2.05078,8.83927,8.83927,0,0,0,1.46485-5.26172V438.46094h6.58593v19.6875q0,3.23438.1875,5.67187h-6.28125q-.28125-3.375-.28125-5.03906h-.11718a9.49679,9.49679,0,0,1-3.33985,4.19531,8.66693,8.66693,0,0,1-4.8164,1.3125,7.76832,7.76832,0,0,1-6.1875-2.47265q-2.15625-2.47266-2.15625-7.25391V438.46094Z"/><path class="b" d="M916.64063,464.24219a6.02991,6.02991,0,0,1-4.47657-1.582,6.54667,6.54667,0,0,1-1.57031-4.793V442.91406h-3.21094v-4.45312h3.53907l2.0625-5.95313h4.125v5.95313h4.80468v4.45312h-4.80468v13.17188a4.34448,4.34448,0,0,0,.70312,2.73047,2.62351,2.62351,0,0,0,2.17969.8789,10.6494,10.6494,0,0,0,2.20312-.32812v4.07812A17.85126,17.85126,0,0,1,916.64063,464.24219Z"/><path class="b" d="M932.625,464.24219a6.02987,6.02987,0,0,1-4.47656-1.582,6.54663,6.54663,0,0,1-1.57031-4.793V442.91406h-3.21094v-4.45312h3.53906l2.0625-5.95313h4.125v5.95313h4.80469v4.45312h-4.80469v13.17188a4.34448,4.34448,0,0,0,.70313,2.73047,2.6235,2.6235,0,0,0,2.17968.8789,10.64947,10.64947,0,0,0,2.20313-.32812v4.07812A17.85128,17.85128,0,0,1,932.625,464.24219Z"/><path class="b" d="M966.21094,451.11719q0,6.16406-3.42188,9.668t-9.46875,3.5039q-5.92968,0-9.30468-3.51562t-3.375-9.65625q0-6.11719,3.375-9.6211t9.44531-3.5039q6.21093,0,9.48047,3.38672T966.21094,451.11719Zm-6.89063,0q0-4.52344-1.47656-6.5625a4.96614,4.96614,0,0,0-4.28906-2.03906q-6,0-6,8.60156a11.73748,11.73748,0,0,0,1.46484,6.457,4.764,4.764,0,0,0,4.23047,2.21484Q959.32032,459.78906,959.32031,451.11719Z"/><path class="b" d="M987.86719,463.82031V449.59375q0-6.67968-4.52344-6.67969a4.5263,4.5263,0,0,0-3.85547,2.05078,8.83927,8.83927,0,0,0-1.46484,5.26172v13.59375H971.4375v-19.6875q0-2.03906-.05859-3.33984t-.12891-2.332h6.28125q.07032.44531.1875,2.3789t.11719,2.66016h.09375a9.664,9.664,0,0,1,3.35156-4.21875,8.60913,8.60913,0,0,1,4.80469-1.3125,7.75,7.75,0,0,1,6.1875,2.48438q2.15625,2.48438,2.15625,7.26562v16.10156Z"/><path class="b" d="M1022.13281,456.41406a6.66406,6.66406,0,0,1-3.01172,5.77735q-3.01171,2.09764-8.332,2.09765-5.22655,0-8.0039-1.65234a8.0663,8.0663,0,0,1-3.69141-5.14453l5.78906-.86719a4.11575,4.11575,0,0,0,1.69922,2.55469,8.49565,8.49565,0,0,0,4.207.75,8.69286,8.69286,0,0,0,4.03125-.70313,2.34649,2.34649,0,0,0,1.26563-2.20312,2.24354,2.24354,0,0,0-1.01953-1.9336,9.688,9.688,0,0,0-3.457-1.207,35.778,35.778,0,0,1-7.52344-2.05078,7.36175,7.36175,0,0,1-2.96485-2.46094,6.49221,6.49221,0,0,1-1.01953-3.71484,6.58992,6.58992,0,0,1,2.80078-5.66016q2.80079-2.02734,7.9336-2.02734a13.36243,13.36243,0,0,1,7.27734,1.75781,7.57169,7.57169,0,0,1,3.4336,5.08594l-5.83594.60938a3.40219,3.40219,0,0,0-1.38281-2.3086,6.25486,6.25486,0,0,0-3.49219-.76172,8.019,8.019,0,0,0-3.51563.59766,2.07445,2.07445,0,0,0-1.17187,2.00391,2.03609,2.03609,0,0,0,.90234,1.74609,8.21658,8.21658,0,0,0,3.03516,1.06641q2.97655.60938,5.28515,1.2539a13.8679,13.8679,0,0,1,3.70313,1.53516,6.38852,6.38852,0,0,1,3.05859,5.85937Z"/><path class="b" d="M1047,438.46094V452.6875q0,6.67969,4.5,6.67969a4.5263,4.5263,0,0,0,3.85547-2.05078,8.83927,8.83927,0,0,0,1.46484-5.26172V438.46094h6.58594v19.6875q0,3.23438.1875,5.67187h-6.28125q-.28125-3.375-.28125-5.03906h-.11719a9.49677,9.49677,0,0,1-3.33984,4.19531,8.66694,8.66694,0,0,1-4.81641,1.3125,7.76832,7.76832,0,0,1-6.1875-2.47265q-2.15625-2.47266-2.15625-7.25391V438.46094Z"/><path class="b" d="M1094.10938,451.02344q0,6.35156-2.543,9.80859a8.39453,8.39453,0,0,1-7.1836,3.457,9.03793,9.03793,0,0,1-4.65234-1.16015,7.59861,7.59861,0,0,1-3.03516-3.33985h-.14062a34.498,34.498,0,0,1,.14062,4.26563v9.72656h-6.58593V444.29688q0-3.58594-.1875-5.83594h6.39843a10.00433,10.00433,0,0,1,.19922,1.66406q.082,1.24219.082,2.46094h.09375q2.22657-4.66407,8.10938-4.66406a7.95022,7.95022,0,0,1,6.86719,3.41015Q1094.10938,444.74219,1094.10938,451.02344Zm-6.86719,0q0-8.53125-5.22656-8.53125a4.4395,4.4395,0,0,0-4.01954,2.29687,12.39951,12.39951,0,0,0-1.39453,6.42188,12.01824,12.01824,0,0,0,1.39453,6.33984,4.42355,4.42355,0,0,0,3.97266,2.23828Q1087.2422,459.78906,1087.24219,451.02344Z"/><path class="b" d="M1119.25781,443.52344a9.66413,9.66413,0,0,1,3.35157-4.21875,8.60912,8.60912,0,0,1,4.80468-1.3125,7.75,7.75,0,0,1,6.1875,2.48437q2.15625,2.48438,2.15625,7.26563v16.07812h-6.5625V449.61719q0-6.67969-4.52343-6.67969a4.52628,4.52628,0,0,0-3.85547,2.05078,8.8392,8.8392,0,0,0-1.46485,5.26172v13.57031h-6.58593V429.03906h6.58593v9.49219q0,2.55469-.1875,4.99219Z"/><path class="b" d="M1152.46875,464.28906q-5.71875,0-8.78906-3.38672t-3.07031-9.8789q0-6.28125,3.11718-9.65625t8.83594-3.375q5.46095,0,8.34375,3.62109t2.88281,10.60547v.1875h-16.26562a9.46875,9.46875,0,0,0,1.37109,5.58984,4.536,4.536,0,0,0,3.90235,1.88672q3.49218,0,4.40625-3.02343l6.21093.53906Q1160.71875,464.28907,1152.46875,464.28906Zm0-22.14843a4.25634,4.25634,0,0,0-3.57422,1.61718,7.53688,7.53688,0,0,0-1.32422,4.52344h9.84375a7.79658,7.79658,0,0,0-1.47656-4.60547A4.296,4.296,0,0,0,1152.46875,442.14063Z"/><path class="b" d="M1168.78125,463.82031V444.41406q0-2.08593-.05859-3.48047t-.12891-2.47265h6.28125q.07032.42188.1875,2.5664t.11719,2.84766h.09375a17.87524,17.87524,0,0,1,1.71094-3.76172,4.84952,4.84952,0,0,1,1.78125-1.61719,5.631,5.631,0,0,1,2.57812-.52734,4.97983,4.97983,0,0,1,2.03906.35156v5.50782a13.25267,13.25267,0,0,0-2.8125-.35157,4.3918,4.3918,0,0,0-3.832,1.99219,10.44054,10.44054,0,0,0-1.37109,5.90625v12.44531Z"/><path class="b" d="M1197.84375,464.28906q-5.71875,0-8.78906-3.38672t-3.07031-9.8789q0-6.28125,3.11718-9.65625t8.83594-3.375q5.46095,0,8.34375,3.62109t2.88281,10.60547v.1875h-16.26562a9.46875,9.46875,0,0,0,1.37109,5.58984,4.536,4.536,0,0,0,3.90235,1.88672q3.49218,0,4.40625-3.02343l6.21093.53906Q1206.09375,464.28907,1197.84375,464.28906Zm0-22.14843a4.25634,4.25634,0,0,0-3.57422,1.61718,7.53688,7.53688,0,0,0-1.32422,4.52344h9.84375a7.79658,7.79658,0,0,0-1.47656-4.60547A4.296,4.296,0,0,0,1197.84375,442.14063Z"/><path class="b" d="M323.32031,523.15625a19.35683,19.35683,0,0,1-2.03906,9.07031,14.06467,14.06467,0,0,1-5.83594,5.98828,18.19288,18.19288,0,0,1-8.85937,2.07422q-7.78125,0-12.19922-4.582t-4.418-12.55078q0-7.9453,4.40625-12.39844t12.25781-4.45312q7.85157,0,12.26953,4.5T323.32031,523.15625Zm-7.05468,0q0-5.34375-2.53125-8.37891a8.73624,8.73624,0,0,0-7.10157-3.03515,8.849,8.849,0,0,0-7.17187,3.01172q-2.53125,3.01171-2.53125,8.40234,0,5.4375,2.58984,8.56641a9.73676,9.73676,0,0,0,14.22656.082Q316.26563,528.75782,316.26563,523.15625Z"/><path class="b" d="M328.6875,539.82031V520.41406q0-2.08593-.05859-3.48047T328.5,514.46094h6.28125q.07032.42188.1875,2.5664t.11719,2.84766h.09375a17.87524,17.87524,0,0,1,1.71094-3.76172,4.84952,4.84952,0,0,1,1.78125-1.61719,5.631,5.631,0,0,1,2.57812-.52734,4.97983,4.97983,0,0,1,2.03906.35156v5.50782a13.25267,13.25267,0,0,0-2.8125-.35157,4.3918,4.3918,0,0,0-3.832,1.99219,10.44054,10.44054,0,0,0-1.37109,5.90625v12.44531Z"/><path class="b" d="M371.27344,540.28906q-5.76562,0-8.90625-3.43359t-3.14063-9.57422q0-6.28125,3.16407-9.78516t8.97656-3.5039a11.80546,11.80546,0,0,1,7.40625,2.25,9.82261,9.82261,0,0,1,3.67969,6.21094l-6.63282.32812a5.44069,5.44069,0,0,0-1.40625-3.10547,4.23507,4.23507,0,0,0-3.1875-1.16015q-5.08593,0-5.08593,8.50781,0,8.76563,5.17968,8.76562a4.4222,4.4222,0,0,0,3.14063-1.18359,5.65236,5.65236,0,0,0,1.57031-3.52734l6.60938.30468a9.82778,9.82778,0,0,1-5.83594,7.793A13.27393,13.27393,0,0,1,371.27344,540.28906Z"/><path class="b" d="M411.49219,527.11719q0,6.16405-3.42188,9.668t-9.46875,3.5039q-5.92968,0-9.30468-3.51562t-3.375-9.65625q0-6.1172,3.375-9.6211t9.44531-3.5039q6.21093,0,9.48047,3.38672T411.49219,527.11719Zm-6.89063,0q0-4.52345-1.47656-6.5625a4.96614,4.96614,0,0,0-4.28906-2.03906q-6,0-6,8.60156a11.73748,11.73748,0,0,0,1.46484,6.457,4.764,4.764,0,0,0,4.23047,2.21484Q404.60157,535.78906,404.60156,527.11719Z"/><path class="b" d="M433.14844,539.82031V525.59375q0-6.67968-4.52344-6.67969a4.5263,4.5263,0,0,0-3.85547,2.05078,8.83927,8.83927,0,0,0-1.46484,5.26172v13.59375h-6.58594v-19.6875q0-2.03905-.05859-3.33984t-.12891-2.332h6.28125q.07032.4453.1875,2.3789t.11719,2.66016h.09375a9.664,9.664,0,0,1,3.35156-4.21875,8.60913,8.60913,0,0,1,4.80469-1.3125,7.75,7.75,0,0,1,6.1875,2.48438q2.15625,2.48438,2.15625,7.26562v16.10156Z"/><path class="b" d="M462.46875,539.82031V525.59375q0-6.67968-4.52344-6.67969a4.52631,4.52631,0,0,0-3.85547,2.05078,8.83927,8.83927,0,0,0-1.46484,5.26172v13.59375h-6.58594v-19.6875q0-2.03905-.05859-3.33984t-.12891-2.332h6.28125q.07032.4453.1875,2.3789T452.4375,519.5h.09375a9.66412,9.66412,0,0,1,3.35156-4.21875,8.60915,8.60915,0,0,1,4.80469-1.3125,7.75,7.75,0,0,1,6.1875,2.48438q2.15625,2.48438,2.15625,7.26562v16.10156Z"/><path class="b" d="M485.74219,540.28906q-5.71875,0-8.78906-3.38672t-3.07032-9.8789q0-6.28125,3.11719-9.65625t8.83594-3.375q5.46093,0,8.34375,3.62109t2.88281,10.60547v.1875H480.79688a9.46875,9.46875,0,0,0,1.37109,5.58984,4.536,4.536,0,0,0,3.90234,1.88672q3.49219,0,4.40625-3.02343l6.21094.53906Q493.9922,540.28907,485.74219,540.28906Zm0-22.14843a4.25632,4.25632,0,0,0-3.57422,1.61718,7.53688,7.53688,0,0,0-1.32422,4.52344h9.84375a7.79665,7.79665,0,0,0-1.47656-4.60547A4.29606,4.29606,0,0,0,485.74219,518.14063Z"/><path class="b" d="M512.625,540.28906q-5.76562,0-8.90625-3.43359t-3.14062-9.57422q0-6.28125,3.16406-9.78516t8.97656-3.5039a11.80542,11.80542,0,0,1,7.40625,2.25,9.82256,9.82256,0,0,1,3.67969,6.21094l-6.63281.32812a5.44069,5.44069,0,0,0-1.40625-3.10547,4.23507,4.23507,0,0,0-3.1875-1.16015q-5.08594,0-5.08594,8.50781,0,8.76563,5.17969,8.76562a4.42218,4.42218,0,0,0,3.14062-1.18359,5.65236,5.65236,0,0,0,1.57031-3.52734l6.60938.30468a9.82773,9.82773,0,0,1-5.83594,7.793A13.27387,13.27387,0,0,1,512.625,540.28906Z"/><path class="b" d="M535.24219,540.24219a6.02987,6.02987,0,0,1-4.47656-1.582,6.54663,6.54663,0,0,1-1.57032-4.793V518.91406h-3.21093v-4.45312h3.53906l2.0625-5.95313h4.125v5.95313h4.80469v4.45312h-4.80469v13.17188a4.34448,4.34448,0,0,0,.70312,2.73047,2.62352,2.62352,0,0,0,2.17969.8789,10.64947,10.64947,0,0,0,2.20313-.32812v4.07812A17.85133,17.85133,0,0,1,535.24219,540.24219Z"/><path class="b" d="M585.49219,539.82031h-6.96094L574.5,524.35156q-.28125-1.05468-1.10156-5.20312l-1.21875,5.25-4.07813,15.42187h-6.96093l-6.5625-25.35937h6.1875l4.17187,19.38281.32813-1.73437.58593-2.74219,3.98438-14.90625h7.05469l3.89062,14.90625q.32813,1.21875.96094,4.47656l.65625-3.09375,3.65625-16.28906h6.09375Z"/><path class="b" d="M595.40625,509.89063v-4.85157h6.58594v4.85157Zm0,29.92968V514.46094h6.58594v25.35937Z"/><path class="b" d="M615.23438,540.24219a6.02991,6.02991,0,0,1-4.47657-1.582,6.54667,6.54667,0,0,1-1.57031-4.793V518.91406h-3.21094v-4.45312h3.53907l2.0625-5.95313h4.125v5.95313h4.80468v4.45312h-4.80468v13.17188a4.34448,4.34448,0,0,0,.70312,2.73047,2.62351,2.62351,0,0,0,2.17969.8789,10.6494,10.6494,0,0,0,2.20312-.32812v4.07812A17.85126,17.85126,0,0,1,615.23438,540.24219Z"/><path class="b" d="M631.21875,519.52344a9.66412,9.66412,0,0,1,3.35156-4.21875,8.60915,8.60915,0,0,1,4.80469-1.3125,7.75,7.75,0,0,1,6.1875,2.48437q2.15625,2.48438,2.15625,7.26563v16.07812h-6.5625V525.61719q0-6.6797-4.52344-6.67969a4.52629,4.52629,0,0,0-3.85547,2.05078A8.83927,8.83927,0,0,0,631.3125,526.25v13.57031h-6.58594V505.03906h6.58594v9.49219q0,2.5547-.1875,4.99219Z"/><path class="b" d="M682.3125,539.82031V525.59375q0-6.67968-3.84375-6.67969a3.721,3.721,0,0,0-3.24609,2.03907,9.94308,9.94308,0,0,0-1.25391,5.27343v13.59375h-6.58594v-19.6875q0-2.03905-.05859-3.33984t-.12891-2.332h6.28125q.07032.4453.1875,2.3789t.11719,2.66016h.09375a9.63913,9.63913,0,0,1,3.03516-4.21875,7.22369,7.22369,0,0,1,4.34765-1.3125q5.8125,0,7.05469,5.53125h.14063a9.94687,9.94687,0,0,1,3.09375-4.24219,7.71248,7.71248,0,0,1,4.59375-1.28906,6.70418,6.70418,0,0,1,5.64843,2.51953q1.94532,2.51953,1.94532,7.23047v16.10156h-6.53907V525.59375q0-6.67968-3.84375-6.67969a3.66555,3.66555,0,0,0-3.15234,1.86328,9.92585,9.92585,0,0,0-1.34766,5.14454v13.89843Z"/><path class="b" d="M720.44531,540.28906q-5.71875,0-8.78906-3.38672t-3.07031-9.8789q0-6.28125,3.11719-9.65625t8.83593-3.375q5.46095,0,8.34375,3.62109t2.88282,10.60547v.1875H715.5a9.46875,9.46875,0,0,0,1.37109,5.58984,4.536,4.536,0,0,0,3.90235,1.88672q3.49218,0,4.40625-3.02343l6.21094.53906Q728.69531,540.28907,720.44531,540.28906Zm0-22.14843a4.25634,4.25634,0,0,0-3.57422,1.61718,7.53688,7.53688,0,0,0-1.32421,4.52344h9.84375a7.79658,7.79658,0,0,0-1.47657-4.60547A4.296,4.296,0,0,0,720.44531,518.14063Z"/><path class="b" d="M756.58594,540.24219a6.02987,6.02987,0,0,1-4.47656-1.582,6.54663,6.54663,0,0,1-1.57032-4.793V518.91406h-3.21093v-4.45312h3.53906l2.0625-5.95313h4.125v5.95313h4.80469v4.45312h-4.80469v13.17188a4.34448,4.34448,0,0,0,.70312,2.73047,2.62352,2.62352,0,0,0,2.17969.8789,10.64947,10.64947,0,0,0,2.20313-.32812v4.07812A17.85133,17.85133,0,0,1,756.58594,540.24219Z"/><path class="b" d="M772.57031,519.52344a9.66413,9.66413,0,0,1,3.35157-4.21875,8.60912,8.60912,0,0,1,4.80468-1.3125,7.75,7.75,0,0,1,6.1875,2.48437q2.15625,2.48438,2.15625,7.26563v16.07812h-6.5625V525.61719q0-6.6797-4.52343-6.67969a4.52628,4.52628,0,0,0-3.85547,2.05078,8.8392,8.8392,0,0,0-1.46485,5.26172v13.57031h-6.58593V505.03906h6.58593v9.49219q0,2.5547-.1875,4.99219Z"/><path class="b" d="M795.39844,539.82031V520.41406q0-2.08593-.0586-3.48047t-.1289-2.47265h6.28125q.0703.42188.1875,2.5664t.11719,2.84766h.09375a17.87533,17.87533,0,0,1,1.71093-3.76172,4.84952,4.84952,0,0,1,1.78125-1.61719,5.631,5.631,0,0,1,2.57813-.52734A4.97983,4.97983,0,0,1,810,514.32031v5.50782a13.25267,13.25267,0,0,0-2.8125-.35157,4.3918,4.3918,0,0,0-3.832,1.99219,10.44054,10.44054,0,0,0-1.37109,5.90625v12.44531Z"/><path class="b" d="M838.17188,527.11719q0,6.16405-3.42188,9.668t-9.46875,3.5039q-5.92968,0-9.30469-3.51562t-3.375-9.65625q0-6.1172,3.375-9.6211t9.44532-3.5039q6.21093,0,9.48046,3.38672T838.17188,527.11719Zm-6.89063,0q0-4.52345-1.47656-6.5625a4.96615,4.96615,0,0,0-4.28906-2.03906q-6,0-6,8.60156a11.73748,11.73748,0,0,0,1.46484,6.457,4.764,4.764,0,0,0,4.23047,2.21484Q831.28124,535.78906,831.28125,527.11719Z"/><path class="b" d="M849.60938,514.46094V528.6875q0,6.6797,4.5,6.67969a4.52628,4.52628,0,0,0,3.85546-2.05078,8.8392,8.8392,0,0,0,1.46485-5.26172V514.46094h6.58594v19.6875q0,3.23438.1875,5.67187h-6.28125q-.28125-3.375-.28125-5.03906h-.11719a9.49672,9.49672,0,0,1-3.33985,4.19531,8.66693,8.66693,0,0,1-4.8164,1.3125,7.76832,7.76832,0,0,1-6.1875-2.47265q-2.15625-2.47266-2.15625-7.25391V514.46094Z"/><path class="b" d="M883.33594,549.99219a13.91015,13.91015,0,0,1-7.46485-1.76953,7.44818,7.44818,0,0,1-3.48046-5.05078l6.58593-.77344a3.99564,3.99564,0,0,0,1.51172,2.39062,4.94159,4.94159,0,0,0,3.03516.86719,4.68275,4.68275,0,0,0,4.00781-1.6875,8.29906,8.29906,0,0,0,1.26563-5.01562v-1.33594l.04687-2.50781h-.04687q-2.17969,4.66406-8.15625,4.66406a8.01564,8.01564,0,0,1-6.86719-3.32813q-2.4375-3.32812-2.4375-9.51562,0-6.21095,2.50781-9.58594a8.52011,8.52011,0,0,1,7.28906-3.375q5.53125,0,7.66407,4.57031h.11718q0-.8203.10547-2.22656a12.88,12.88,0,0,1,.22266-1.85156h6.23437q-.14062,2.53125-.14062,5.85937v18.72657q0,5.41406-3.07031,8.17968T883.33594,549.99219Zm5.50781-23.20313a11.33913,11.33913,0,0,0-1.39453-6.10547,4.44384,4.44384,0,0,0-3.97266-2.1914q-5.27343,0-5.27343,8.4375,0,8.27343,5.22656,8.27344a4.48413,4.48413,0,0,0,4.01953-2.19141A11.60136,11.60136,0,0,0,888.84375,526.78906Z"/><path class="b" d="M908.53125,519.52344a9.66412,9.66412,0,0,1,3.35156-4.21875,8.60915,8.60915,0,0,1,4.80469-1.3125,7.75,7.75,0,0,1,6.1875,2.48437q2.15625,2.48438,2.15625,7.26563v16.07812h-6.5625V525.61719q0-6.6797-4.52344-6.67969a4.52629,4.52629,0,0,0-3.85547,2.05078A8.83927,8.83927,0,0,0,908.625,526.25v13.57031h-6.58594V505.03906H908.625v9.49219q0,2.5547-.1875,4.99219Z"/><path class="b" d="M944.55469,539.82031V506.79688h6.91406v27.67968H969.1875v5.34375Z"/><path class="b" d="M974.01563,509.89063v-4.85157h6.58593v4.85157Zm0,29.92968V514.46094h6.58593v25.35937Z"/><path class="b" d="M1003.78125,539.82031V525.59375q0-6.67968-4.52344-6.67969a4.52631,4.52631,0,0,0-3.85547,2.05078,8.83927,8.83927,0,0,0-1.46484,5.26172v13.59375h-6.58594v-19.6875q0-2.03905-.05859-3.33984t-.12891-2.332h6.28125q.07032.4453.1875,2.3789T993.75,519.5h.09375a9.66412,9.66412,0,0,1,3.35156-4.21875A8.60915,8.60915,0,0,1,1002,513.96875a7.75,7.75,0,0,1,6.1875,2.48438q2.15625,2.48438,2.15625,7.26562v16.10156Z"/><path class="b" d="M1032.86719,539.82031l-6.77344-11.48437-2.83594,1.96875v9.51562h-6.58593V505.03906h6.58593v19.92188l9.04688-10.5h7.07812l-8.90625,9.89062,9.58594,15.46875Z"/><path class="b" d="M1053.75,540.28906q-5.71875,0-8.78906-3.38672t-3.07031-9.8789q0-6.28125,3.11718-9.65625t8.83594-3.375q5.46095,0,8.34375,3.62109t2.88281,10.60547v.1875h-16.26562a9.46875,9.46875,0,0,0,1.37109,5.58984,4.536,4.536,0,0,0,3.90235,1.88672q3.49218,0,4.40625-3.02343l6.21093.53906Q1062,540.28907,1053.75,540.28906Zm0-22.14843a4.25634,4.25634,0,0,0-3.57422,1.61718,7.53688,7.53688,0,0,0-1.32422,4.52344h9.84375a7.79658,7.79658,0,0,0-1.47656-4.60547A4.296,4.296,0,0,0,1053.75,518.14063Z"/><path class="b" d="M1086.49219,539.82031a14.76562,14.76562,0,0,1-.22266-1.76953q-.12891-1.418-.1289-2.35547h-.09375q-2.13282,4.59375-8.10938,4.59375a7.85636,7.85636,0,0,1-6.84375-3.457q-2.41405-3.457-2.41406-9.668,0-6.30468,2.543-9.73828a8.43863,8.43863,0,0,1,7.207-3.43359,9.17977,9.17977,0,0,1,4.65234,1.125,7.38481,7.38481,0,0,1,3.01172,3.35156h.04688l-.04688-4.17187v-9.25782h6.58594v29.25q0,2.34375.1875,5.53125ZM1086.1875,527a12.05465,12.05465,0,0,0-1.37109-6.31641,4.4593,4.4593,0,0,0-4.043-2.21484,4.28289,4.28289,0,0,0-3.9375,2.14453q-1.28907,2.14453-1.28906,6.55078,0,8.625,5.17968,8.625a4.50458,4.50458,0,0,0,4.03125-2.28515A12.3001,12.3001,0,0,0,1086.1875,527Z"/><path class="b" d="M1099.24219,539.82031V506.79688h6.91406v33.02343Z"/><path class="b" d="M1129.14844,539.82031V525.59375q0-6.67968-4.52344-6.67969a4.5263,4.5263,0,0,0-3.85547,2.05078,8.83927,8.83927,0,0,0-1.46484,5.26172v13.59375h-6.58594v-19.6875q0-2.03905-.05859-3.33984t-.12891-2.332h6.28125q.07032.4453.1875,2.3789t.11719,2.66016h.09375a9.664,9.664,0,0,1,3.35156-4.21875,8.60913,8.60913,0,0,1,4.80469-1.3125,7.75,7.75,0,0,1,6.1875,2.48438q2.15625,2.48438,2.15625,7.26562v16.10156Z"/><polygon class="c" points="891.522 137.5 878.243 160.5 904.801 160.5 891.522 137.5"/><path class="b" d="M1704.52355,454.5847c-3.63115-6.45614-7.259-12.90642-10.95237-19.47316.64657-.42686,1.12527-.79717,1.65049-1.08165a90.11612,90.11612,0,0,1,32.46315-10.4686,67.78373,67.78373,0,0,1,29.94465,2.74981c16.52085,5.54727,27.90764,16.59634,34.40587,32.70424a71.79622,71.79622,0,0,1,4.97059,24.04777,90.4918,90.4918,0,0,1-3.82582,30.19244,74.21752,74.21752,0,0,1-22.44092,34.6731,112.71249,112.71249,0,0,1-30.15072,18.78751,158.86925,158.86925,0,0,1-37.2184,10.84806,174.51505,174.51505,0,0,1-32.85542,2.477,150.51568,150.51568,0,0,1-44.80623-7.41121A104.21647,104.21647,0,0,1,1594.2988,556.106a101.71266,101.71266,0,0,1-18.98182-19.97189,220.67948,220.67948,0,0,1-12.25756-18.89814c-3.55248-6.00164-7.07276-12.02251-10.66079-18.00282a110.79783,110.79783,0,0,0-8.18583-11.94222,59.35878,59.35878,0,0,0-6.08836-6.70859c-.67284.21985-.56521.70462-.53428,1.12876q.49783,6.82279,1.01181,13.64446c.45051,6.06424.981,12.124,1.32405,18.1943.27732,4.90787.402,9.82777.45482,14.7438a48.08423,48.08423,0,0,1-1.20751,10.64377,38.9449,38.9449,0,0,1-6.40958,14.64676c-7.98713,11.12477-18.44008,18.85119-31.72879,22.51274a49.85254,49.85254,0,0,1-16.21038,1.58149,65.79867,65.79867,0,0,1-26.872-7.64069,75.39084,75.39084,0,0,1-29.94531-27.34045,52.32757,52.32757,0,0,1-7.33546-18.87979,44.412,44.412,0,0,1,3.13344-25.71284,60.59273,60.59273,0,0,1,12.38231-18.03712,93.51242,93.51242,0,0,1,20.58415-15.79039,122.691,122.691,0,0,1,41.39063-14.91389c3.8711-.64788,7.81614-.85541,11.728-1.25782.78659-.08095,1.57656-.12914,2.25822-.18388a3.19972,3.19972,0,0,0,.40448-2.45957c-.14141-5.90156-.34014-11.80181-.46552-17.70367-.23188-10.91584.10318-21.82479.5693-32.72772.466-10.90109,1.05032-21.79722,1.599-32.6947.34176-6.78829.73375-13.57412,1.05765-20.36322.08084-1.69424-.04092-3.39724-.0191-5.09556a2.82441,2.82441,0,0,0-1.35546-2.45893,14.35463,14.35463,0,0,0-5.13292-2.22412,35.63678,35.63678,0,0,0-9.59311-.81389,87.86258,87.86258,0,0,0-15.65282,2.15907,213.602,213.602,0,0,0-33.12182,10.69357c-3.898,1.56088-7.7441,3.25138-11.61641,4.87668-.81016.34006-1.6315.65347-2.55182,1.02072a50.69225,50.69225,0,0,1-3.27486-6.80872q-1.58445-3.40341-3.08023-6.84786c-.98381-2.27838-2.14863-4.48551-2.9913-6.96351a16.62823,16.62823,0,0,1,1.45657-.83495c14.322-6.31666,28.86387-12.02463,44.03487-16.01388a123.417,123.417,0,0,1,21.33676-3.89977c7.883-.64314,15.73255-.48474,23.37276,1.966a37.13758,37.13758,0,0,1,10.27367,5.12482,24.4615,24.4615,0,0,1,10.82521,20.25079c.09786,3.75168.03118,7.515-.13977,11.2649-.45209,9.91679-1.00545,19.829-1.51164,29.74335-.3694,7.23507-.69288,14.47269-1.09987,21.70562-.52805,9.38444-.54476,18.7768-.42124,28.16743.10115,7.69035.40768,15.378.63126,23.06666a4.78669,4.78669,0,0,0,.18472,1.58277c.12888.3273.59025.52369,1.06858.91359.308-.87146.59528-1.51407.764-2.18642,3.69938-14.74435,6.87259-29.59652,9.27906-44.61208,1.44376-9.00849,2.65588-18.046,3.51938-27.12445q1.61375-16.96681,1.76937-34.01916c.027-3.57264.25637-7.1483.5199-10.71319a28.65491,28.65491,0,0,1,1.98464-8.59015c3.35759-8.369,10.89169-12.5463,19.78178-11.03215a35.558,35.558,0,0,1,11.48422,4.30972,72.71506,72.71506,0,0,1,14.72935,11.13814A120.73785,120.73785,0,0,1,1634.008,384.5706a91.24534,91.24534,0,0,1,3.559,28.09893c-.65076,19.21446-4.881,37.53561-13.984,54.58884a87.94059,87.94059,0,0,1-15.79805,21.55983c-1.46349,1.439-3.062,2.74379-4.63632,4.06518a17.08349,17.08349,0,0,1-1.91944,1.20705c-4.09416-6.43476-7.92143-12.87121-11.86293-19.1613a2.79312,2.79312,0,0,1,.34455-.5647c7.1869-6.45461,12.2483-14.40654,16.21732-23.111a103.54592,103.54592,0,0,0,8.66969-43.83543,76.98605,76.98605,0,0,0-6.11254-26.78786,100.15594,100.15594,0,0,0-21.55286-32.40938,64.36932,64.36932,0,0,0-9.41052-7.95956c-.56486-.38608-1.18952-.68471-1.99711-1.14331a15.24848,15.24848,0,0,0-.29606,3.86134c-.05124,1.25078-.04285,2.50394-.06735,3.75594-.02625,1.3413-.05367,2.68264-.09314,4.0236-.03689,1.2517-.09409,2.50276-.13521,3.75435s-.072,2.50353-.11017,3.75523-.06094,2.50431-.12554,3.7547c-.06457,1.25016-.18117,2.49755-.25924,3.74714-.07807,1.24979-.1219,2.5018-.20777,3.751-.09193,1.338-.22156,2.67328-.32319,4.01064-.0949,1.24857-.15659,2.4999-.266,3.7471-.10945,1.24695-.26556,2.48971-.39093,3.73535-.12535,1.24538-.23562,2.49226-.357,3.73807-.12138,1.246-.23719,2.49278-.3759,3.73695-.13861,1.24387-.2996,2.48534-.45629,3.72716q-.2518,1.99578-.51487,3.99014-.24817,1.86088-.51422,3.71939-.26286,1.85879-.53666,3.71612-.27336,1.85716-.55691,3.71278c-.18949,1.23706-.37984,2.47405-.58086,3.70928-.21538,1.32344-.43509,2.6463-.66879,3.96663-.21808,1.232-.45826,2.46019-.6863,3.69047q-.34209,1.84566-.67912,3.6922c-.22487,1.231-.43488,2.46491-.674,3.69313s-.50781,2.4504-.76056,3.67586-.49695,2.45292-.75381,3.67766c-.27516,1.31188-.559,2.622-.84224,3.93217-.26438,1.223-.52532,2.44686-.80172,3.66717s-.57439,2.43556-.855,3.65483-.53983,2.44378-.83005,3.66082-.60886,2.42741-.912,3.64143c-.30307,1.21387-.60083,2.429-.90389,3.64294-.32472,1.30071-.64822,2.60181-.981,3.90049q-.46577,1.81794-.95018,3.63114c-.31988,1.20561-.64675,2.40932-.98889,3.68222a11.226,11.226,0,0,0,.77411,1.06975,101.30352,101.30352,0,0,1,11.17237,14.73391c3.838,6.14008,7.49344,12.39416,11.25089,18.58489,3.15436,5.19717,6.25393,10.43087,9.54634,15.53975,2.031,3.15158,4.29991,6.16,6.59747,9.12783a71.26748,71.26748,0,0,0,28.91117,22.03439,112.3065,112.3065,0,0,0,27.03056,7.55977,139.449,139.449,0,0,0,27.551,1.497c18.66614-.799,36.69121-4.51984,53.7595-12.31853a89.24179,89.24179,0,0,0,21.66913-13.74437,52.96458,52.96458,0,0,0,17.54752-30.874,67.914,67.914,0,0,0,1.00278-19.22271,46.97876,46.97876,0,0,0-3.61828-14.50617c-4.53608-10.44718-12.46207-16.77438-23.49147-19.29442a50.79854,50.79854,0,0,0-22.34745.27216,70.39182,70.39182,0,0,0-17.08765,6.19685c-.71445.36432-1.44011.70689-2.16471,1.05083A3.03576,3.03576,0,0,1,1704.52355,454.5847Zm-190.75849,16.43094a10.69329,10.69329,0,0,0-1.301-.12138,89.32969,89.32969,0,0,0-17.48082,2.48234,98.92514,98.92514,0,0,0-33.503,15.1147,57.56506,57.56506,0,0,0-11.78951,10.871,31.77255,31.77255,0,0,0-5.56955,9.7153,20.93811,20.93811,0,0,0-1.01121,10.02514,31.35673,31.35673,0,0,0,5.64915,13.4708,53.17117,53.17117,0,0,0,29.8445,21.02544,30.77789,30.77789,0,0,0,16.93968.25883,34.8338,34.8338,0,0,0,15.10316-9.33127,22.20416,22.20416,0,0,0,6.79454-15.81938c.16755-7.0753-.33945-14.11168-.86789-21.15143-.43474-5.79149-.94039-11.57767-1.36685-17.36968-.43305-5.88151-.80531-11.76755-1.21255-17.651C1513.96369,472.10194,1513.86609,471.67348,1513.76506,471.01564Z"/><path class="b" d="M1738.411,353.14551c.31952,2.07483.2748,19.53215-.06994,22.31413a6.75666,6.75666,0,0,1-2.8219.25507,78.69571,78.69571,0,0,0-36.55692,10.24364c-13.80471,7.93255-24.35295,18.94332-31.02376,33.4865a55.99453,55.99453,0,0,0-5.2335,26.84031,40.86421,40.86421,0,0,0,4.79322,17.158,53.676,53.676,0,0,0,14.95783,17.33762,59.33017,59.33017,0,0,0,25.63072,11.645,38.9833,38.9833,0,0,0,16.23891-.19171,27.9746,27.9746,0,0,0,16.95307-11.40726c.56546-.79847,1.11-1.61175,1.74374-2.53393a66.57881,66.57881,0,0,1,6.545,3.62508c2.26067,1.26808,4.52006,2.542,6.73326,3.89011a54.18708,54.18708,0,0,1,6.40571,3.92689c-.3048.56078-.5318,1.04368-.81542,1.49065-8.47335,13.35575-20.45387,21.461-36.09682,24.049a66.20709,66.20709,0,0,1-33.011-3.24848c-17.05325-5.93838-30.98386-16.13273-41.36721-30.98856a63.77006,63.77006,0,0,1-10.95139-27.11336,68.73608,68.73608,0,0,1-.46524-17.65574c2.33523-22.35343,12.4202-40.83651,28.552-56.12832a98.55511,98.55511,0,0,1,50.21726-25.521,113.87642,113.87642,0,0,1,17.31953-1.80265A3.3586,3.3586,0,0,1,1738.411,353.14551Z"/><polygon class="c" points="410.712 719.207 428.706 738.74 436.625 713.39 410.712 719.207"/><path class="d" d="M1219,453c30.98938-3.87662,45.64331-15.21762,53-26,31.96912-46.85593-18.32227-164.57169-99-199-97.44885-41.58521-200.4585,54.8891-256,6-22.66278-19.94838-25.47742-53.584-25-76"/><path class="e" d="M922.34936,555c-31.29784,49.27289-17.90032,66.2265-1.99335,73,46.81464,19.93457,147.38557-34.67041,265.11478-18,74.26034,10.5152,142.09682,47.51276,141.52744,84-.94509,60.56866-190.21935,108.90411-285.04822,88-74.33018-16.38538-54.643-67.37756-127.574-80-74.68957-12.92676-130.89485,34.40015-261.12809,45C561.82257,754.44122,480.95271,739.95416,428,727"/></svg>